<svg height="511pt" viewBox="1 0 511.99832 511" width="511pt" xmlns="http://www.w3.org/2000/svg"><path d="m485.335938 159.648438c-8.277344 0-14.988282 6.710937-14.988282 14.988281v67.617187l-94.167968-79.09375c-6.335938-5.324218-15.792969-4.503906-21.113282 1.835938-5.324218 6.339844-4.503906 15.792968 1.835938 21.117187l113.445312 95.285157v214.46875c0 8.273437 6.710938 14.984374 14.988282 14.984374 8.277343 0 14.984374-6.710937 14.984374-14.984374v-321.230469c0-8.277344-6.707031-14.988281-14.984374-14.988281zm0 0" fill="#4b5c5a"/><path d="m136.980469 163.160156-94.167969 79.09375v-67.617187c0-8.277344-6.707031-14.988281-14.984375-14.988281s-14.988281 6.710937-14.988281 14.988281v321.230469c0 8.273437 6.710937 14.984374 14.988281 14.984374s14.984375-6.710937 14.984375-14.984374v-214.46875l113.449219-95.285157c6.335937-5.324219 7.160156-14.777343 1.835937-21.117187-5.324218-6.335938-14.777344-7.160156-21.117187-1.835938zm0 0" fill="#4b5c5a"/><path d="m496.578125 99.832031h-481.589844c-8.277343 0-14.988281 6.710938-14.988281 14.988281v59.816407c0 8.277343 6.710938 14.988281 14.988281 14.988281h481.589844c8.277344 0 14.988281-6.710938 14.988281-14.988281v-59.816407c0-8.277343-6.710937-14.988281-14.988281-14.988281zm0 0" fill="#8db3b1"/><g fill="#617a78"><path d="m496.578125 99.832031h-240.792969v89.792969h240.792969c8.277344 0 14.988281-6.710938 14.988281-14.988281v-59.816407c0-8.277343-6.710937-14.988281-14.988281-14.988281zm0 0"/><path d="m39.503906 480.878906h-23.351562c-8.277344 0-14.988282 6.710938-14.988282 14.988282 0 8.273437 6.710938 14.984374 14.988282 14.984374h23.351562c8.277344 0 14.988282-6.710937 14.988282-14.984374 0-8.277344-6.710938-14.988282-14.988282-14.988282zm0 0"/><path d="m497.011719 480.878906h-23.355469c-8.277344 0-14.984375 6.710938-14.984375 14.988282 0 8.273437 6.707031 14.984374 14.984375 14.984374h23.355469c8.277343 0 14.988281-6.710937 14.988281-14.984374 0-8.277344-6.710938-14.988282-14.988281-14.988282zm0 0"/></g><path d="m168.117188 421.195312c-8.277344 0-14.988282 6.710938-14.988282 14.988282v59.816406c0 8.277344 6.710938 14.988281 14.988282 14.988281 8.277343 0 14.984374-6.710937 14.984374-14.988281v-59.816406c0-8.277344-6.707031-14.988282-14.984374-14.988282zm0 0" fill="#4b5c5a"/><path d="m345.050781 421.195312c-8.277343 0-14.988281 6.710938-14.988281 14.988282v59.816406c0 8.277344 6.710938 14.988281 14.988281 14.988281 8.273438 0 14.984375-6.710937 14.984375-14.988281v-59.816406c0-8.277344-6.710937-14.988282-14.984375-14.988282zm0 0" fill="#4b5c5a"/><path d="m373.632812 378.292969h-235.542968c-8.277344 0-14.988282 6.710937-14.988282 14.988281v42.902344c0 8.277344 6.710938 14.988281 14.988282 14.988281h235.539062c8.277344 0 14.988282-6.710937 14.988282-14.988281v-42.902344c0-8.277344-6.707032-14.988281-14.984376-14.988281zm0 0" fill="#ffe2a3"/><path d="m373.632812 378.292969h-117.847656v72.878906h117.84375c8.277344 0 14.988282-6.710937 14.988282-14.988281v-42.902344c0-8.277344-6.707032-14.988281-14.984376-14.988281zm0 0" fill="#ffc873"/><path d="m502.296875 100.96875-240.796875-99.335938c-3.660156-1.511718-7.769531-1.511718-11.429688 0l-240.796874 99.335938c-6.613282 2.726562-10.375 9.75-8.988282 16.765625 1.394532 7.019531 7.550782 12.074219 14.703125 12.074219h481.59375c7.152344 0 13.308594-5.058594 14.699219-12.074219 1.390625-7.019531-2.371094-14.039063-8.984375-16.765625zm0 0" fill="#ffe2a3"/><path d="m502.296875 100.96875-240.796875-99.335938c-1.832031-.757812-3.773438-1.132812-5.714844-1.132812v129.308594h240.792969c7.15625 0 13.3125-5.054688 14.703125-12.074219s-2.371094-14.039063-8.984375-16.765625zm0 0" fill="#ffc873"/></svg>