<svg id="Capa_1" enable-background="new 0 0 511.95 511.95" height="512" viewBox="0 0 511.95 511.95" width="512" xmlns="http://www.w3.org/2000/svg"><g><path d="m435.975 246.975v238.2h-360v-238.2l180-143.399z" fill="#b34a36"/><path d="m435.975 246.975v238.2h-180v-381.599z" fill="#992d2d"/><path d="m445.275 235.275-24.3-19.499v74.399h-60v-122.1l-30-24v146.1h-150v-146.1l-30 24v122.1h-60v-74.399l-24.3 19.499c-3.6 2.701-5.7 7.2-5.7 11.7v238.2c0 8.401 6.599 15 15 15h105l30-30-30-120v-30h150v30l-30 90 30 60h105c8.401 0 15-6.599 15-15v-238.2c0-4.5-2.1-8.999-5.7-11.7zm-354.3 234.9v-101.4l50.7 101.4zm60-48.599-50.7-101.4h50.7zm210-101.401h50.7l-50.7 101.4zm60 150h-50.7l50.7-101.4z" fill="#cc7152"/><path d="m445.275 235.275-24.3-19.499v74.399h-60v-122.1l-30-24v146.1h-75v30h75v30l-30 90 30 60h105c8.401 0 15-6.599 15-15v-238.2c0-4.5-2.1-8.999-5.7-11.7zm-84.3 84.9h50.7l-50.7 101.4zm60 150h-50.7l50.7-101.4z" fill="#b34a36"/><path d="m255.975 170.175c-24.901 0-45 20.099-45 45s20.099 45 45 45 45-20.099 45-45-20.1-45-45-45z" fill="#cfd6e6"/><path d="m435.975 20.175h-60c-8.291 0-15 6.709-15 15v87.217l90 77.783v-165c0-8.291-6.709-15-15-15z" fill="#992d2d"/><path d="m180.975 350.175h150v150h-150z" fill="#345866"/><path d="m255.975 350.175h75v150h-75z" fill="#26334d"/><path d="m300.975 215.175c0 24.901-20.099 45-45 45v-90c24.9 0 45 20.1 45 45z" fill="#a3b1cc"/><path d="m506.275 206.476-241-191.4c-2.701-2.1-6-3.301-9.3-3.301s-6.599 1.201-9.3 3.301l-241 191.4c-6.601 5.099-7.5 14.7-2.401 20.999l38.2 46.8c5.101 6.601 14.401 7.5 21 2.401l193.5-153.9 193.5 153.9c2.699 2.1 6 3.3 9.3 3.3 4.499 0 8.699-1.8 11.7-5.7l38.2-46.8c5.101-6.3 4.202-15.9-2.399-21z" fill="#ffdf80"/><path d="m508.675 227.475-38.2 46.8c-3.001 3.9-7.202 5.7-11.7 5.7-3.3 0-6.601-1.199-9.3-3.3l-193.5-153.9v-111c3.3 0 6.599 1.201 9.3 3.301l241 191.4c6.601 5.1 7.5 14.7 2.4 20.999z" fill="#ffbf40"/></g></svg>