<svg id="Capa_1" enable-background="new 0 0 512 512" height="512" viewBox="0 0 512 512" width="512" xmlns="http://www.w3.org/2000/svg"><g><path d="m441.269 453.507h-371.525v-259.127l184.28-154.33 187.245 154.33z" fill="#ffcd75"/><path d="m254.024 34.899-6.95 5.821 142.686 117.603v220.647c0 21.253-17.229 38.48-38.48 38.48h-281.536v30.905h371.525v-259.126z" fill="#ffc069"/><path d="m391.747 148.412-137.723-113.513-135.542 113.513z" fill="#e6a85e"/><ellipse cx="69.655" cy="425.995" fill="#ae6834" rx="22.48" ry="22.48" transform="matrix(.176 -.984 .984 .176 -361.951 419.644)"/><ellipse cx="69.677" cy="336.038" fill="#9e5e2f" rx="22.48" ry="22.48" transform="matrix(.176 -.984 .984 .176 -273.377 345.529)"/><ellipse cx="69.711" cy="245.983" fill="#ae6834" rx="22.48" ry="22.48"/><ellipse cx="439.88" cy="426.087" fill="#ae6834" rx="22.48" ry="22.48"/><ellipse cx="439.902" cy="336.129" fill="#9e5e2f" rx="22.48" ry="22.48"/><ellipse cx="439.805" cy="246.023" fill="#ae6834" rx="22.48" ry="22.48" transform="matrix(.707 -.707 .707 .707 -45.149 383.047)"/><path d="m481.96 256.95-228.307-188.172-224.524 188.032c-3.466 2.902-8.628 2.446-11.53-1.02l-12.948-15.462c-2.902-3.466-2.446-8.628 1.02-11.53l236.16-197.776c6.746-5.65 16.559-5.687 23.348-.092l240.02 197.826c3.488 2.875 3.986 8.033 1.111 11.522l-12.827 15.562c-2.876 3.489-8.034 3.985-11.523 1.11z" fill="#804e2b"/><g fill="#fefaf4"><path d="m187.65 297.584h-38.263c-4.33 0-7.841-3.511-7.841-7.841v-72.684c0-4.33 3.511-7.841 7.841-7.841h38.263c4.33 0 7.841 3.51 7.841 7.841v72.684c-.001 4.33-3.512 7.841-7.841 7.841z"/><path d="m276.635 297.584h-38.263c-4.33 0-7.841-3.511-7.841-7.841v-72.684c0-4.33 3.511-7.841 7.841-7.841h38.263c4.33 0 7.841 3.51 7.841 7.841v72.684c-.002 4.33-3.512 7.841-7.841 7.841z"/><path d="m365.618 297.584h-38.263c-4.33 0-7.841-3.511-7.841-7.841v-72.684c0-4.33 3.511-7.841 7.841-7.841h38.263c4.33 0 7.841 3.51 7.841 7.841v72.684c0 4.33-3.511 7.841-7.841 7.841z"/></g><path d="m187.65 209.219h-30.905c4.33 0 7.841 3.51 7.841 7.841v72.684c0 4.33-3.511 7.841-7.841 7.841h30.905c4.33 0 7.841-3.511 7.841-7.841v-72.684c-.001-4.331-3.512-7.841-7.841-7.841z" fill="#e7e7e7"/><path d="m276.635 209.219h-30.905c4.33 0 7.841 3.51 7.841 7.841v72.684c0 4.33-3.511 7.841-7.841 7.841h30.905c4.33 0 7.841-3.511 7.841-7.841v-72.684c-.001-4.331-3.512-7.841-7.841-7.841z" fill="#e7e7e7"/><path d="m365.618 209.219h-30.905c4.33 0 7.841 3.51 7.841 7.841v72.684c0 4.33-3.511 7.841-7.841 7.841h30.905c4.33 0 7.841-3.511 7.841-7.841v-72.684c0-4.331-3.511-7.841-7.841-7.841z" fill="#e7e7e7"/><g fill="#804e2b"><ellipse cx="69.705" cy="290.946" rx="24.67" ry="24.67" transform="matrix(.707 -.707 .707 .707 -185.314 134.505)"/><ellipse cx="69.744" cy="384.619" rx="24.674" ry="24.674" transform="matrix(.999 -.055 .055 .999 -21.163 4.445)"/><ellipse cx="439.8" cy="290.985" rx="24.67" ry="24.67"/><circle cx="439.878" cy="384.619" r="24.674"/></g><path d="m475.76 342.807h-439.52c-2.946 0-5.334 2.388-5.334 5.334v20.579c0 2.946 2.388 5.334 5.334 5.334h113.201v80.305h35.4v-80.305h53.459v80.305h35.4v-80.305h53.459v80.305h35.4v-80.305h113.201c2.946 0 5.334-2.388 5.334-5.334v-20.579c.001-2.945-2.387-5.334-5.334-5.334z" fill="#ae6834"/><path d="m506.666 485.241h-501.332c-2.946 0-5.334-2.388-5.334-5.334v-30.881c0-2.946 2.388-5.334 5.334-5.334h501.331c2.946 0 5.334 2.388 5.334 5.334v30.881c.001 2.945-2.387 5.334-5.333 5.334z" fill="#d88a55"/><path d="m506.666 443.692h-30.906c2.946 0 5.334 2.388 5.334 5.334v30.881c0 2.946-2.388 5.334-5.334 5.334h30.905c2.946 0 5.334-2.388 5.334-5.334v-30.881c.001-2.946-2.387-5.334-5.333-5.334z" fill="#b5703e"/></g></svg>