<svg width="37" height="48" viewBox="0 0 37 48" fill="none" xmlns="http://www.w3.org/2000/svg">
<path d="M24.2708 3.198V16.386M24.2708 16.386H34.3244M24.2708 16.386L36 1M34.3244 35.9922V42.5862C34.3263 43.1983 34.2307 43.8042 34.0438 44.3651C33.8568 44.926 33.5826 45.4295 33.2388 45.8433C32.8949 46.2571 32.4889 46.5722 32.0469 46.7683C31.6048 46.9644 31.1364 47.0373 30.6716 46.9822C25.5155 46.2472 20.5628 43.936 16.2112 40.2343C12.1627 36.8596 8.73027 32.357 6.15767 27.0463C3.32588 21.3122 1.5636 14.7836 1.0136 7.98964C0.971728 7.38182 1.0268 6.76922 1.1753 6.19085C1.3238 5.61248 1.56248 5.081 1.87614 4.63026C2.1898 4.17952 2.57158 3.8194 2.99715 3.57281C3.42273 3.32622 3.88279 3.19857 4.34803 3.198H9.37481C10.188 3.1875 10.9763 3.56524 11.5929 4.2608C12.2095 4.95637 12.6122 5.9223 12.726 6.97856C12.9382 9.08879 13.3316 11.1608 13.8989 13.1549C14.1244 13.9417 14.1731 14.7967 14.0395 15.6186C13.9059 16.4406 13.5954 17.1951 13.1449 17.7927L11.0169 20.5842C13.4022 26.087 16.8755 30.6432 21.0705 33.7722L23.1985 30.9807C23.654 30.3898 24.2292 29.9825 24.8558 29.8072C25.4824 29.6319 26.1342 29.6959 26.734 29.9916C28.2542 30.7358 29.8337 31.2519 31.4424 31.5302C32.2563 31.6808 32.9997 32.2186 33.5311 33.0413C34.0625 33.864 34.3448 34.9142 34.3244 35.9922Z" stroke="white" stroke-linecap="round" stroke-linejoin="round"/>
</svg>
