<svg height="512" viewBox="0 0 58 58" width="512" xmlns="http://www.w3.org/2000/svg"><g id="024---Woodworking" fill="none" transform="translate(0 -1)"><path id="Shape" d="m57.5 17.06-41.44 41.44c-.6634123.6611207-1.7365877.6611207-2.4 0l-1.63-1.63-.71-.71-.71-.71-2.82-2.82-.71-.71-4.27-4.27-.71-.7v-.01l-1.6-1.6c-.66112072-.6634123-.66112072-1.7365877 0-2.4l16.26-16.26 10.35-10.35 14.83-14.83c.6634123-.66112072 1.7365877-.66112072 2.4 0l1.63 1.63.71.71 4.95 4.95 2.82 2.83h.01l.7.7.71.71 1.63 1.63c.6611207.6634123.6611207 1.7365877 0 2.4z" fill="#a56a43"/><path id="Shape" d="m55.87 13.03-2 2.02c-2.9323409 2.9783127-7.147283 4.3146664-11.26 3.57-.6179912-.1037332-1.2433692-.1572415-1.87-.16-2.8400633-.0094081-5.5658824 1.1176479-7.57 3.13l-.28.28c-.3943361.3867403-1.0256639.3867403-1.42 0-.3899779-.3930079-.3899779-1.0269921 0-1.42l.28-.28c2.9375394-2.9332738 7.1241401-4.2441542 11.21-3.51 3.4658909.6190734 7.0145245-.5064679 9.49-3.01l2-2.03h.01l.7.7z" fill="#805333"/><path id="Shape" d="m24.79 41.25-.08.08c-2.936265 2.9714723-7.1492119 4.303452-11.26 3.56-.6179912-.1037332-1.2433692-.1572415-1.87-.16-2.84006328-.0094081-5.56588244 1.1176479-7.57 3.13l-.49.49h-.01l-.7-.7-.71-.7v-.01l.49-.49c2.93377994-2.9399086 7.12224484-4.255109 11.21-3.52 3.4660069.6208529 7.0154554-.5049469 9.49-3.01l.08-.09c.3921222-.3921221 1.0278778-.3921221 1.42 0 .3921221.3921222.3921221 1.0278778 0 1.42z" fill="#805333"/><path id="Shape" d="m47.38 4.54-3.53 3.54c-.190164.18499088-.4447023.28895721-.71.29-.2623399-.00110462-.5137394-.10525584-.7-.29-.191781-.18439106-.3001659-.43895486-.3001659-.705s.1083849-.52060894.3001659-.705l3.53-3.54.71.71z" fill="#603e26"/><path id="Shape" d="m37.485 14.029c-.4043959-.0000863-.7689341-.2437275-.923678-.6173454-.1547439-.373618-.0692299-.8036603.216678-1.0896546l2.828-2.828c.2525868-.25276541.6208353-.35157685.96603-.25921299.3451946.09236386.6148921.36187074.7075.70700001.0926079.34512928-.0059432.71344758-.25853.96621298l-2.829 2.828c-.1870531.1882061-.4416514.2937185-.707.293z" fill="#805333"/><g fill="#603e26"><path id="Shape" d="m37.25 27c-.4043959-.0000863-.7689341-.2437275-.923678-.6173454-.1547439-.373618-.0692299-.8036603.216678-1.0896546l2.36-2.36c.3923789-.3789722 1.0160848-.3735524 1.4018186.0121814s.3911536 1.0094397.0121814 1.4018186l-2.36 2.36c-.1874927.1875494-.4418052.2929434-.707.293z"/><path id="Shape" d="m11 41c-.4043959-.0000863-.7689341-.2437275-.923678-.6173454-.15474391-.373618-.0692299-.8036603.216678-1.0896546l6.54-6.54c.3923789-.3789722 1.0160848-.3735524 1.4018186.0121814s.3911536 1.0094397.0121814 1.4018186l-6.54 6.54c-.1874927.1875494-.4418052.2929434-.707.293z"/><path id="Shape" d="m19.73 48.69-7.68 8.16-.02.02-.71-.71-.71-.71 7.66-8.14c.3810765-.4031678 1.0168321-.4210764 1.42-.04.4031678.3810765.4210764 1.0168321.04 1.42z"/></g><path id="Shape" d="m51.63 8.79-3.54 3.53c-.1843911.191781-.4389549.3001659-.705.3001659s-.5206089-.1083849-.705-.3001659c-.3877236-.3900375-.3877236-1.0199625 0-1.41l3.53-3.54z" fill="#805333"/><path id="Shape" d="m29.11 43.99-4.28-1.33c-.3999848-.1280846-.6787991-.4905432-.7-.91l-.05-1.21-.2-4.34c-.0200625-.423087-.3044957-.7876423-.71-.91l-5.3-1.65c-.119828-.0399004-.2315782-.100855-.33-.18-.2232655-.17824-.3582471-.444555-.37-.73l-.25-5.54c-.010591-.1805693-.0655467-.3557405-.16-.51-.1297089-.1926207-.3196139-.3368078-.54-.41l-5.3-1.64c-.4055043-.1223577-.6899375-.486913-.71-.91l-.24-5.55c-.02006247-.423087-.30449575-.7876423-.71-.91l-5.3-1.64c-.39998481-.1280846-.6787991-.4905432-.7-.91l-.26-5.82c-.00946647-.27419948.09138988-.54074842.28-.74l6.58-6.84c.3904411-.40345992 1.0330941-.41684852 1.44-.03l15.81 15.05 1.04 1 4.03 3.83 5.07 4.84 1.06 1 2.59 2.46z" fill="#bdc3c7"/><path id="Shape" d="m11.71 48.71-3.92 3.92-.71-.71-.71-.71 3.92-3.92c.3921222-.3921221 1.0278778-.3921221 1.42 0 .3921221.3921222.3921221 1.0278778 0 1.42z" fill="#805333"/><path id="Shape" d="m12.172 8.748c-.2565691-.00020533-.503244-.09901851-.689-.276l-1.477-1.406c-.38647844-.3833526-.39533199-1.00541857-.01992-1.39961477.375412-.3941962.9971692-.41570126 1.39892-.04838523l1.477 1.4c.2967872.28194673.3917616.71630913.2397287 1.09639146-.152033.38008233-.5203678.62912104-.9297287.62860854z" fill="#fff"/><path id="Shape" d="m23.983 19.994c-.2565691-.0002053-.503244-.0990185-.689-.276l-8.858-8.435c-.3781455-.3845928-.3831631-.9997752-.0113413-1.39048498.3718219-.39070976.9864983-.41615572 1.3893413-.05751502l8.859 8.435c.2960469.2820624.3905417.7159484.2386024 1.0955764-.1519392.379628-.5196978.6285054-.9286024.6284236z" fill="#fff"/><path id="Shape" d="m56.3 41.26-13.51-12.19c-.4206813-.4230136-1.1038253-.4274786-1.53-.01l-12.01 13.31c-.1818233.2087852-.2655454.4854322-.23.76l.39 3.67c.03647.2913479.1745785.5604824.39.76l11.48 10.35c1.87 1.68 5.28.94 6.79-.73l8.88-9.84c1.4930066-1.8603307 1.2025375-4.5773344-.65-6.08zm-12.69 13.26-6.06-5.46 9.56-10.6 6.06 5.46z" fill="#e57e25"/></g></svg>