<svg id="Capa_1" enable-background="new 0 0 511.932 511.932" height="512" viewBox="0 0 511.932 511.932" width="512" xmlns="http://www.w3.org/2000/svg"><g><g fill="#b45d4a"><path d="m75.662 354.397c-4.549 0-9.043-2.061-11.991-5.974l-19.816-26.296c-4.985-6.616-3.664-16.021 2.952-21.007s16.022-3.664 21.007 2.952l19.816 26.296c4.985 6.616 3.664 16.021-2.952 21.007-2.703 2.038-5.873 3.022-9.016 3.022z"/><path d="m65.74 270.932c-6.389 0-12.235-4.226-14.231-10.294-1.988-6.044.133-12.986 5.305-16.757 5.139-3.748 12.138-3.884 17.409-.317 4.733 3.203 7.25 9.12 6.327 14.754-1.176 7.172-7.53 12.614-14.81 12.614z"/></g><g><path d="m298.154 511.932h-102.168v-73.99c0-8.284 6.716-15 15-15h72.168c8.284 0 15 6.716 15 15z" fill="#94443f"/><g><g><g><path d="m202.599 383.645c-3.979 0-7.794-1.58-10.606-4.394l-80.298-80.297c-2.813-2.813-4.394-6.628-4.394-10.606 0-3.979 1.58-7.793 4.394-10.606l75.334-75.333c5.858-5.858 15.356-5.858 21.213 0l80.297 80.297c5.858 5.858 5.858 15.355 0 21.213l-75.333 75.333c-2.813 2.812-6.629 4.393-10.607 4.393z" fill="#b45d4a"/><path d="m248.389 242.556-96.546 96.546 40.149 40.149c2.813 2.814 6.628 4.394 10.606 4.394s7.794-1.581 10.606-4.394l75.333-75.333c5.858-5.858 5.858-15.355 0-21.213z" fill="#94443f"/></g><g><path d="m372.474 435.111c-16.428 0-32.855-6.253-45.362-18.759l-252.518-252.518c-25.013-25.013-25.013-65.711 0-90.724 18.775-18.775 46.133-23.59 69.313-14.207 3.16-7.014 7.585-13.458 13.123-18.997 12.116-12.116 28.226-18.789 45.362-18.789s33.245 6.673 45.361 18.79l13.55 13.549c3.004-5.809 6.92-11.182 11.671-15.932 23.924-23.925 62.2-24.964 87.373-3.123 2.847-6.49 6.837-12.398 11.874-17.435 24.772-24.773 67.751-22.103 95.806 5.952s30.725 71.033 5.952 95.806c-5.036 5.037-10.945 9.026-17.435 11.873 10.135 11.661 15.666 26.412 15.666 42.012 0 17.136-6.673 33.246-18.79 45.362-4.751 4.751-10.123 8.667-15.933 11.67l13.55 13.55c12.117 12.116 18.79 28.227 18.79 45.362s-6.673 33.246-18.79 45.362c-5.538 5.539-11.982 9.963-18.996 13.123 9.388 23.184 4.57 50.537-14.206 69.313-12.505 12.507-28.934 18.76-45.361 18.76z" fill="#d2d02c"/><path d="m200.852 290.093 126.259 126.259c12.507 12.506 28.935 18.759 45.362 18.759 16.428 0 32.857-6.253 45.362-18.759 18.776-18.776 23.594-46.129 14.206-69.313 7.014-3.16 13.458-7.585 18.996-13.123 12.117-12.117 18.79-28.227 18.79-45.362 0-17.136-6.673-33.246-18.79-45.362l-13.55-13.55c5.81-3.004 11.182-6.92 15.933-11.67 12.117-12.117 18.79-28.227 18.79-45.362 0-15.6-5.531-30.351-15.666-42.012 6.489-2.847 12.398-6.836 17.435-11.873 24.772-24.773 22.103-67.751-5.952-95.806z" fill="#b5b424"/></g></g><g><path d="m165.543 511.932h-144.557v-108.639c0-8.284 6.716-15 15-15h114.557c8.284 0 15 6.716 15 15z" fill="#b45d4a"/><path d="m150.543 388.293h-57.278v123.638h72.278v-108.638c0-8.284-6.716-15-15-15z" fill="#94443f"/></g></g></g></g></svg>